{"title":"The.Sapphires.2012.BDRip.XviD-Acesn8s","uid":7898601,"size":740123650,"categoryP":"video","categoryS":"movies","magnet":"?xt=urn:btih:7200741d6ca0b3e259d65d0fde8852c7bef5b52e&amp;dn=The.Sapphires.2012.BDRip.XviD-Acesn8s&amp;tr=udp%3A%2F%2Ftracker.openbittorrent.com%3A80&amp;tr=udp%3A%2F%2Fopen.demonii.com%3A1337&amp;tr=udp%3A%2F%2Ftracker.coppersurfer.tk%3A6969&amp;tr=udp%3A%2F%2Fexodus.desync.com%3A6969","seeders":3,"leechers":0,"uploader":"Acesn8s","files":-1,"time":1354904741,"description":"Poster..........: http://www.shotpix.com/images/76935785024460760947.jpg\n\nRelease Name....: The.Sapphires.2012.BDRip.XviD-Acesn8s\t \n\nTheatre.Date....: 8 August 2012  \nRatings.........: 7.1/10 from 1,259 users   \nGenre...........: Comedy | Drama | Musical  \nDuration........: 1h 43 mn\nSubs............: English (.srt file)\nSample..........: Yes\nPS3.............: Don't Care\n\nGeneral Info\n\nRelease name                             : The.Sapphires.2012.BDRip.XviD-Acesn8s\nFormat                                   : AVI\nFormat/Info                              : Audio Video Interleave\nFile size                                : 699 MiB\nDuration                                 : 1h 43mn\nOverall bit rate                         : 946 Kbps\nWriting library                          : VirtualDub build 32842/release\n\nVideo\nID                                       : 0\nFormat                                   : MPEG-4 Visual\nFormat profile                           : Simple@L1\nFormat settings, BVOP                    : No\nFormat settings, QPel                    : No\nFormat settings, GMC                     : No warppoints\nFormat settings, Matrix                  : Default (H.263)\nCodec ID                                 : XVID\nCodec ID/Hint                            : XviD\nDuration                                 : 1h 43mn\nBit rate                                 : 808 Kbps\nWidth                                    : 640 pixels\nHeight                                   : 272 pixels\nDisplay aspect ratio                     : 16:9\nFrame rate                               : 24.000 fps\nColor space                              : YUV\nChroma subsampling                       : 4:2:0\nBit depth                                : 8 bits\nScan type                                : Progressive\nCompression mode                         : Lossy\nBits/(Pixel*Frame)                       : 0.193\nStream size                              : 598 MiB (85%)\nWriting library                          : XviD 64\n\nAudio\nID                                       : 1\nFormat                                   : MPEG Audio\nFormat version                           : Version 1\nFormat profile                           : Layer 3\nMode                                     : Joint stereo\nMode extension                           : MS Stereo\nCodec ID                                 : 55\nCodec ID/Hint                            : MP3\nDuration                                 : 1h 43mn\nBit rate mode                            : Constant\nBit rate                                 : 128 Kbps\nChannel(s)                               : 2 channels\nSampling rate                            : 48.0 KHz\nCompression mode                         : Lossy\nStream size                              : 94.7 MiB (14%)\nAlignment                                : Split accross interleaves\nInterleave, duration                     : 42 ms (1.00 video frame)\nInterleave, preload duration             : 500 ms\nWriting library                          : LAME3.99.5\nsource                                   : Blu-ray PFa\n &lt;a href=&quot;\nhttp://www.imdb.com/title/tt1673697/&quot; rel=&quot;nofollow&quot; target=&quot;_NEW&quot;&gt;\nhttp://www.imdb.com/title/tt1673697/&lt;/a&gt;\n\nActors: Chris O'Dowd, Deborah Mailman and Jessica Mauboy\n\nPlot: It's 1968, and four young, talented Australian Aboriginal girls learn about love, friendship and war when their all girl group The Sapphires entertain the US troops in Vietnam.  \n\n\nScreens:\n &lt;a href=&quot;\nhttp://www.shotpix.com/images/30422227228294155810.jpg&quot; rel=&quot;nofollow&quot; target=&quot;_NEW&quot;&gt;\nhttp://www.shotpix.com/images/30422227228294155810.jpg&lt;/a&gt;\n &lt;a href=&quot;\nhttp://www.shotpix.com/images/95317561685800244549.jpg&quot; rel=&quot;nofollow&quot; target=&quot;_NEW&quot;&gt;\nhttp://www.shotpix.com/images/95317561685800244549.jpg&lt;/a&gt;\n &lt;a href=&quot;\nhttp://www.shotpix.com/images/18955220133743599167.jpg&quot; rel=&quot;nofollow&quot; target=&quot;_NEW&quot;&gt;\nhttp://www.shotpix.com/images/18955220133743599167.jpg&lt;/a&gt;\n &lt;a href=&quot;\nhttp://www.shotpix.com/images/19021151808728457952.jpg&quot; rel=&quot;nofollow&quot; target=&quot;_NEW&quot;&gt;\nhttp://www.shotpix.com/images/19021151808728457952.jpg&lt;/a&gt;\n &lt;a href=&quot;\nhttp://www.shotpix.com/images/01980119268307299758.jpg&quot; rel=&quot;nofollow&quot; target=&quot;_NEW&quot;&gt;\nhttp://www.shotpix.com/images/01980119268307299758.jpg&lt;/a&gt;","torrent":{"xt":"urn:btih:7200741d6ca0b3e259d65d0fde8852c7bef5b52e","amp;dn":"The.Sapphires.2012.BDRip.XviD-Acesn8s","amp;tr":["udp%3A%2F%2Ftracker.openbittorrent.com%3A80","udp%3A%2F%2Fopen.demonii.com%3A1337","udp%3A%2F%2Ftracker.coppersurfer.tk%3A6969","udp%3A%2F%2Fexodus.desync.com%3A6969"],"infoHash":"7200741d6ca0b3e259d65d0fde8852c7bef5b52e","infoHashBuffer":{"type":"Buffer","data":[114,0,116,29,108,160,179,226,89,214,93,15,222,136,82,199,190,245,181,46]},"announce":[],"urlList":[]}}